<?xml version="1.0" standalone="no"?>
<!DOCTYPE svg PUBLIC "-//W3C//DTD SVG 20010904//EN"
 "http://www.w3.org/TR/2001/REC-SVG-20010904/DTD/svg10.dtd">
<svg version="1.0" xmlns="http://www.w3.org/2000/svg"
 width="700.000000pt" height="700.000000pt" viewBox="0 0 700.000000 700.000000"
 preserveAspectRatio="xMidYMid meet">
<metadata>
Created by potrace 1.14, written by Peter Selinger 2001-2017
</metadata>
<g transform="translate(0.000000,700.000000) scale(0.100000,-0.100000)"
fill="#000000" stroke="none">
<path d="M3450 5685 c-190 -30 -372 -107 -522 -222 -68 -52 -164 -145 -204
-199 -16 -21 -32 -41 -35 -44 -33 -28 -169 -309 -169 -348 0 -7 -17 -6 -51 4
-27 8 -62 17 -77 19 -15 2 -38 7 -52 10 -81 20 -310 -4 -400 -41 -171 -72
-283 -156 -379 -284 -138 -184 -192 -406 -154 -635 7 -44 19 -97 27 -117 l14
-37 -37 -17 c-116 -55 -244 -169 -306 -276 -42 -71 -81 -171 -90 -226 -3 -21
-8 -49 -11 -62 -11 -45 -7 -154 9 -227 20 -94 54 -174 102 -247 22 -32 46 -68
54 -80 24 -37 154 -138 224 -173 36 -19 108 -45 159 -58 l93 -24 794 0 c437
-1 797 -4 800 -6 2 -3 5 -102 5 -220 l1 -215 -30 -1 c-16 0 -67 0 -112 0 -76
0 -84 -2 -102 -24 l-19 -25 -679 0 -680 0 -20 -22 c-42 -47 -56 -158 -32 -254
22 -86 -31 -80 730 -80 l674 1 23 -25 24 -25 396 -1 397 0 25 25 25 25 676 1
c647 0 678 1 698 19 29 27 43 78 43 160 0 78 -23 150 -53 166 -11 6 -277 10
-697 10 l-679 0 -12 24 c-13 23 -18 24 -123 24 -60 0 -112 3 -115 6 -6 5 -7
426 -1 431 2 2 312 6 688 8 377 2 701 7 720 10 19 4 46 10 60 13 14 3 36 8 49
10 43 8 145 46 216 79 229 109 427 304 540 534 80 163 116 319 116 501 1 473
-278 887 -717 1068 -135 56 -271 83 -431 85 l-82 1 -6 50 c-16 116 -98 318
-178 436 -34 51 -129 163 -167 197 -66 61 -258 193 -279 193 -4 0 -30 11 -57
24 -49 23 -135 53 -184 62 -14 3 -45 10 -70 15 -71 16 -276 18 -370 4z"/>
<path d="M2225 1320 c-11 -12 -25 -18 -34 -15 -11 4 -10 0 4 -15 10 -11 15
-20 10 -20 -4 0 -2 -7 5 -15 6 -8 9 -19 6 -24 -4 -5 -1 -13 5 -17 8 -5 9 -3 4
6 -6 10 -4 12 8 7 21 -8 22 1 2 23 -13 14 -12 16 4 16 12 0 17 -5 13 -15 -3
-9 -1 -12 6 -7 6 3 14 1 18 -5 4 -7 3 -9 -3 -6 -5 3 -10 0 -10 -8 0 -11 4 -12
13 -4 7 6 18 8 25 4 8 -5 9 0 5 16 -3 13 -3 18 0 11 3 -6 11 -9 16 -6 6 4 8 2
4 -4 -3 -6 -2 -13 3 -16 5 -4 12 2 14 11 4 17 5 17 6 1 0 -10 5 -18 10 -18 5
0 7 8 4 19 -6 22 12 37 23 20 4 -8 3 -9 -4 -5 -7 4 -12 1 -12 -8 0 -9 5 -16
11 -16 5 0 8 -4 5 -8 -3 -5 1 -9 9 -9 8 0 15 3 15 7 0 3 9 6 21 7 18 2 19 0 7
-15 -11 -15 -11 -15 3 -5 9 7 20 9 24 5 5 -4 5 2 1 13 -4 11 -4 16 0 12 4 -4
17 1 28 10 12 10 15 11 9 3 -13 -14 -19 -39 -6 -27 3 4 15 -1 26 -10 19 -17
20 -17 8 4 -14 27 -14 45 0 21 6 -10 16 -15 26 -11 13 5 15 2 10 -18 -6 -23
-5 -23 8 -5 8 10 12 23 9 27 -3 5 2 6 10 3 9 -3 16 -1 16 5 0 6 5 11 10 11 5
0 9 -3 9 -7 -5 -29 2 -36 16 -17 10 13 13 14 10 3 -7 -19 22 -22 44 -5 12 9
13 7 7 -9 -4 -11 -4 -16 0 -12 4 4 13 2 21 -5 8 -6 13 -7 12 -2 -1 5 -1 16 0
24 1 13 2 13 11 0 9 -13 10 -13 10 0 1 9 6 6 16 -10 l15 -25 -6 29 -6 30 21
-25 c12 -13 19 -19 16 -12 -4 6 -2 14 4 18 5 3 10 2 10 -3 0 -5 15 -9 33 -9
23 1 31 -3 29 -14 -3 -12 -1 -12 10 -1 11 11 10 16 -6 28 -11 8 -15 14 -9 14
7 0 22 -12 34 -27 12 -16 19 -20 16 -11 -3 9 0 18 6 21 17 6 38 -3 32 -13 -3
-5 0 -12 6 -16 8 -4 9 -3 5 4 -10 16 16 15 34 0 8 -7 6 -2 -5 11 l-20 24 25
-13 c14 -7 29 -18 33 -24 6 -7 7 -5 4 6 -9 26 22 32 32 6 7 -21 8 -20 16 8 5
16 7 33 6 37 -1 5 3 6 8 2 6 -3 8 -12 5 -20 -4 -10 0 -13 15 -10 12 2 19 0 16
-5 -3 -5 -14 -7 -25 -5 -11 2 -20 -1 -20 -7 0 -5 7 -8 15 -4 8 3 15 0 15 -7 0
-9 2 -9 8 -1 4 6 24 10 44 9 25 -2 39 2 43 13 3 8 8 12 12 9 3 -4 15 -2 26 4
11 6 17 7 13 1 -3 -5 3 -17 13 -26 18 -16 19 -16 17 0 0 9 7 18 16 19 22 4 33
-11 17 -21 -7 -4 -9 -3 -6 3 3 5 0 10 -8 10 -11 0 -12 -4 -4 -14 14 -16 14
-16 35 4 19 19 54 28 54 14 0 -6 -9 -8 -19 -6 -14 3 -18 -1 -14 -12 4 -11 8
-11 13 -3 6 9 9 9 13 -1 4 -9 6 -10 6 -2 1 8 8 10 19 6 14 -6 15 -4 4 9 -10
12 -10 18 2 27 11 9 16 9 22 0 4 -7 3 -9 -4 -5 -19 12 -22 -11 -3 -28 18 -16
19 -16 17 0 -2 24 29 26 58 3 21 -16 24 -17 22 -2 0 9 5 18 12 20 6 3 12 0 12
-7 0 -6 -4 -8 -10 -5 -6 4 -7 -1 -3 -11 4 -11 8 -13 11 -6 2 7 8 9 14 6 6 -4
14 -1 18 6 10 16 50 24 50 11 0 -6 -9 -8 -19 -6 -14 3 -18 -1 -14 -11 6 -16
19 -18 28 -4 4 6 11 7 17 4 7 -5 9 -2 5 8 -8 21 16 17 43 -7 16 -15 20 -15 15
-3 -8 19 11 33 21 17 5 -8 3 -9 -7 -4 -11 6 -12 5 -2 -5 11 -12 15 -11 26 5
13 17 15 17 35 -3 18 -18 22 -19 22 -6 0 15 2 15 23 1 19 -12 24 -13 24 -2 0
8 -4 12 -8 9 -4 -2 -11 0 -14 6 -4 6 -1 9 7 8 7 -2 12 2 11 9 -2 7 4 10 13 6
11 -4 12 -8 4 -13 -9 -6 -9 -9 -1 -14 6 -4 8 -12 5 -18 -4 -7 -2 -8 5 -4 6 4
9 11 6 15 -2 5 5 17 18 27 22 19 22 19 5 -1 -10 -12 -14 -26 -9 -34 6 -9 10
-7 14 9 4 14 10 19 18 14 9 -5 10 -2 5 12 -5 14 -4 16 5 7 13 -13 3 -36 -13
-27 -6 4 -8 2 -5 -3 4 -6 18 -8 32 -5 14 2 33 -2 43 -9 15 -12 16 -12 4 2 -10
14 -10 18 3 23 10 4 14 2 9 -5 -4 -7 1 -9 15 -4 17 5 20 3 15 -12 -5 -14 -4
-15 4 -3 6 8 8 19 4 25 -3 5 2 4 11 -4 9 -7 14 -18 10 -24 -3 -6 -1 -7 6 -3 6
4 9 12 6 17 -11 17 24 9 35 -8 11 -17 11 -17 6 1 -5 13 -2 17 8 13 7 -3 19 0
25 6 10 9 12 9 9 -2 -2 -7 4 -16 12 -18 10 -3 11 -2 3 4 -8 6 -9 14 -3 23 7
11 10 11 10 2 0 -16 42 -33 54 -21 15 14 26 11 26 -8 0 -9 3 -14 6 -10 3 3 3
15 -1 27 -6 19 -8 20 -24 6 -15 -14 -18 -13 -28 3 -9 14 -8 18 3 18 7 0 11 -4
8 -9 -3 -4 0 -8 6 -8 6 0 13 7 17 16 5 12 9 11 23 -10 9 -15 20 -23 23 -20 4
4 2 13 -5 21 -9 11 -8 13 3 11 8 -2 13 3 11 10 -1 8 2 11 8 7 8 -5 8 -11 1
-19 -8 -10 -4 -16 16 -25 24 -11 25 -10 13 4 -7 8 -10 18 -6 22 3 3 6 1 6 -6
0 -7 7 -11 15 -8 8 4 17 1 21 -5 4 -7 3 -8 -4 -4 -7 4 -12 3 -12 -1 0 -5 37
-8 81 -9 45 0 76 2 70 4 -6 2 -9 7 -7 11 3 4 -6 7 -19 7 -13 0 -22 -3 -20 -6
2 -3 -7 -6 -20 -6 -13 0 -22 3 -20 6 2 4 -2 7 -10 7 -8 0 -12 -4 -9 -9 9 -15
-3 -8 -17 9 -10 11 -10 14 -1 9 7 -4 12 -2 12 6 0 9 3 9 10 -2 5 -8 10 -11 10
-5 0 5 6 3 12 -3 10 -10 16 -8 30 10 12 15 16 17 12 6 -5 -14 -1 -16 19 -13
17 4 27 -1 36 -18 l12 -22 -5 23 c-2 12 0 22 5 22 5 0 9 -5 9 -11 0 -6 6 -9
13 -6 6 2 21 -3 31 -12 11 -9 17 -11 13 -5 -3 6 0 20 8 31 14 20 40 24 63 9
15 -9 44 12 36 26 -4 6 2 5 14 -1 11 -6 23 -20 27 -30 4 -15 14 -19 38 -17 18
1 33 8 33 14 3 26 5 26 19 2 12 -21 14 -22 15 -6 0 11 3 16 7 13 3 -4 13 -1
21 6 13 10 15 9 9 -5 -3 -10 -2 -20 4 -23 5 -4 8 -1 7 6 -2 6 7 12 19 14 30 2
32 6 22 30 -7 19 -8 19 -8 -2 -1 -13 -6 -23 -12 -23 -6 0 -9 7 -6 15 4 8 2 17
-4 20 -5 4 -8 3 -7 -2 2 -4 -1 -8 -7 -8 -5 0 -9 7 -8 15 2 10 1 11 -3 2 -5
-10 -9 -10 -22 0 -15 11 -15 11 -4 -3 10 -13 9 -19 -5 -30 -11 -9 -14 -10 -9
-1 13 21 -5 35 -21 15 -14 -17 -14 -17 -10 3 2 12 -1 21 -8 21 -7 0 -10 -9 -8
-21 4 -16 2 -18 -5 -7 -8 11 -10 11 -15 0 -4 -10 -6 -9 -6 4 -1 9 -6 17 -11
17 -7 0 -7 -7 0 -20 7 -12 16 -18 23 -13 7 4 6 0 -2 -10 -13 -17 -25 -15 -27
4 -1 5 -2 14 -3 19 0 6 -10 10 -21 10 -11 0 -20 6 -20 13 0 8 -4 7 -10 -3 -6
-10 -10 -11 -10 -2 0 6 -6 11 -12 10 -7 -2 -12 2 -11 9 2 7 -4 10 -13 6 -13
-5 -11 -9 10 -22 26 -16 34 -31 16 -31 -5 0 -10 5 -10 11 0 6 -9 9 -20 6 -11
-3 -18 -2 -15 3 8 13 -16 18 -70 14 -62 -4 -76 -7 -94 -18 -10 -7 -12 -6 -6 4
6 10 4 12 -9 7 -10 -4 -15 -3 -11 3 3 6 -3 10 -14 10 -12 0 -21 5 -21 12 0 6
-2 9 -5 6 -10 -10 7 -38 19 -31 6 3 7 2 3 -2 -9 -11 -39 -16 -33 -7 2 4 -2 16
-10 27 -8 10 -14 13 -14 7 0 -7 -12 -12 -26 -12 -14 0 -23 4 -20 9 8 12 -21 8
-34 -5 -7 -7 -6 -11 4 -11 8 0 12 5 9 10 -3 6 -1 7 6 3 6 -4 9 -11 6 -16 -8
-12 -33 -6 -57 14 -19 17 -22 17 -33 3 -10 -14 -14 -15 -32 -2 -18 13 -22 13
-34 -2 -8 -9 -9 -14 -4 -11 6 4 17 2 25 -3 11 -7 10 -8 -8 -6 -12 2 -28 9 -35
17 -6 7 -7 10 -1 7 6 -3 11 0 11 8 0 9 -5 11 -11 6 -6 -4 -28 -7 -49 -6 -26 1
-37 -2 -33 -10 2 -6 -2 -12 -10 -12 -7 0 -10 5 -7 11 3 6 3 8 -2 4 -4 -4 -14
-3 -22 3 -7 6 -13 8 -13 4 0 -4 -7 -1 -17 6 -15 13 -15 12 -5 -7 9 -16 8 -21
-3 -21 -8 0 -12 4 -9 8 2 4 0 10 -6 14 -5 3 -10 1 -10 -4 0 -6 -5 -11 -11 -11
-5 0 -8 4 -5 8 3 5 -1 9 -9 9 -8 0 -12 -4 -9 -9 3 -4 0 -8 -6 -8 -6 0 -13 7
-16 15 -6 16 -24 11 -24 -6 0 -6 4 -8 9 -5 11 7 8 -21 -4 -31 -4 -4 -5 -2 -1
5 4 7 1 15 -8 18 -9 3 -14 10 -11 14 3 5 0 12 -6 16 -8 5 -9 3 -4 -6 6 -10 4
-12 -9 -7 -10 4 -15 3 -11 -3 3 -6 2 -10 -4 -10 -5 0 -12 6 -14 13 -4 10 -6
10 -6 0 -1 -7 -6 -13 -12 -13 -5 0 -7 5 -3 12 4 6 3 8 -4 4 -5 -3 -12 -3 -15
1 -2 5 -2 2 -1 -4 2 -7 -1 -13 -6 -13 -6 0 -10 6 -10 13 0 8 -4 7 -10 -3 -5
-8 -10 -10 -10 -4 0 7 -7 15 -16 18 -14 5 -15 4 -5 -8 9 -11 7 -13 -14 -13
-22 0 -24 2 -13 16 11 14 11 14 -2 6 -23 -16 -74 -19 -65 -4 5 8 4 10 -4 5 -9
-6 -9 -11 0 -22 6 -7 16 -11 22 -7 6 3 7 1 3 -6 -8 -12 -30 -1 -48 24 -5 6 -8
4 -8 -4 0 -11 -4 -10 -13 4 -10 13 -16 15 -21 6 -4 -6 -12 -8 -18 -5 -7 4 -8
2 -4 -4 10 -17 -3 -15 -20 3 -9 8 -21 15 -27 15 -7 0 -6 -4 3 -10 12 -8 10
-10 -8 -10 -15 0 -21 4 -16 12 4 7 3 8 -5 4 -6 -4 -9 -12 -6 -17 4 -5 1 -9 -4
-9 -6 0 -11 4 -11 8 0 4 -9 8 -20 9 -11 1 -18 -2 -15 -8 4 -5 2 -9 -4 -9 -5 0
-12 6 -15 13 -3 8 -9 6 -21 -8 -14 -18 -70 -31 -59 -14 2 4 14 6 25 4 15 -3
19 0 15 10 -2 7 0 16 7 18 7 3 2 4 -10 4 -12 -1 -19 -5 -17 -9 3 -4 -2 -8 -11
-8 -10 0 -13 5 -9 12 4 7 3 8 -5 4 -6 -4 -9 -12 -6 -17 4 -5 1 -9 -4 -9 -6 0
-11 6 -11 13 0 9 -2 9 -9 -1 -6 -11 -10 -10 -15 3 -5 15 -9 15 -23 4 -9 -8
-19 -12 -22 -11 -32 19 -40 21 -47 10 -5 -7 -3 -8 6 -3 8 5 11 4 7 -3 -4 -5
-16 -8 -28 -5 -16 4 -17 8 -7 14 9 6 9 9 1 9 -6 0 -15 -5 -18 -10 -5 -8 -12
-7 -23 2 -14 11 -14 8 2 -16 11 -17 13 -25 5 -20 -14 8 -19 10 -38 13 -5 0
-12 9 -14 19 -4 16 -5 16 -6 0 0 -10 -6 -18 -12 -18 -5 0 -8 4 -5 8 2 4 -4 9
-15 9 -10 1 -19 -4 -19 -12 0 -8 -5 -17 -11 -21 -7 -4 -9 0 -5 14 4 12 1 22
-8 25 -10 4 -12 -1 -9 -16 4 -20 3 -20 -7 -4 -11 18 -12 18 -33 0 -11 -10 -17
-12 -13 -5 4 6 4 12 -1 13 -4 0 -16 2 -26 4 -9 2 -15 -1 -11 -6 3 -5 10 -6 16
-3 7 4 8 2 4 -5 -4 -6 -12 -9 -17 -5 -5 3 -17 0 -26 -8 -12 -9 -15 -9 -9 0 4
7 1 12 -9 12 -9 0 -14 4 -11 8 3 5 -1 9 -9 9 -8 0 -12 -4 -9 -9 3 -4 0 -8 -6
-8 -6 0 -8 -5 -4 -12 10 -16 -26 11 -43 32 -10 13 -11 12 -10 -5 2 -22 -20
-27 -42 -11 -12 9 -13 7 -8 -6 3 -10 1 -20 -5 -24 -6 -4 -8 -3 -5 3 4 6 -1 19
-9 29 -14 17 -15 17 -10 1 5 -15 3 -16 -17 -5 -37 21 -48 19 -36 -5 9 -19 7
-19 -12 3 -20 23 -22 23 -17 4 5 -20 4 -21 -25 -6 -23 12 -32 12 -35 3 -3 -9
-8 -9 -20 1 -9 8 -13 8 -9 2 4 -7 0 -15 -9 -18 -8 -3 -13 -2 -10 3 9 14 -16
19 -52 9 -20 -5 -30 -13 -26 -20 5 -7 3 -8 -5 -3 -9 5 -10 10 -2 18 6 6 11 16
11 22 0 6 -3 7 -8 0 -11 -15 -56 -51 -50 -40 3 6 2 19 -3 30 -5 14 -8 15 -8 5
-1 -14 -34 -50 -46 -50 -14 0 -2 19 14 25 13 4 18 11 14 22 -6 14 -7 14 -14
-3 -4 -10 -8 -15 -8 -10 -1 5 -9 2 -18 -5 -9 -8 -14 -9 -11 -4 4 6 2 17 -4 25
-8 12 -9 12 -4 -2 3 -12 -2 -22 -17 -29 -20 -11 -21 -11 -8 4 9 12 10 17 2 17
-6 0 -14 -7 -18 -16 -5 -12 -7 -13 -14 -3 -5 8 -2 21 8 31 9 10 14 18 11 18
-3 0 -13 -9 -23 -20z m1055 0 c0 -5 -5 -10 -11 -10 -5 0 -7 5 -4 10 3 6 8 10
11 10 2 0 4 -4 4 -10z m320 0 c0 -5 -5 -10 -11 -10 -5 0 -7 5 -4 10 3 6 8 10
11 10 2 0 4 -4 4 -10z m-929 -17 c13 -16 12 -17 -3 -4 -17 13 -22 21 -14 21 2
0 10 -8 17 -17z m519 -9 c0 -2 -9 0 -20 6 -11 6 -20 13 -20 16 0 2 9 0 20 -6
11 -6 20 -13 20 -16z m40 22 c0 -2 -8 -10 -17 -17 -16 -13 -17 -12 -4 4 13 16
21 21 21 13z m828 -21 c-3 -3 -9 2 -12 12 -6 14 -5 15 5 6 7 -7 10 -15 7 -18z
m76 17 c3 -5 -1 -9 -9 -9 -8 0 -15 4 -15 9 0 4 4 8 9 8 6 0 12 -4 15 -8z m149
-7 c4 -8 3 -16 -1 -19 -4 -3 -9 4 -9 15 -2 23 3 25 10 4z m-1800 -10 c-3 -9
-8 -14 -10 -11 -3 3 -2 9 2 15 9 16 15 13 8 -4z m1038 -2 c12 -16 12 -17 -2
-6 -9 7 -20 9 -24 5 -5 -4 -5 -1 -1 6 9 16 11 15 27 -5z m891 -7 c7 4 8 2 4
-5 -9 -13 -26 -5 -25 12 0 9 2 8 6 -1 2 -6 10 -9 15 -6z m202 -2 c3 -8 2 -12
-4 -9 -6 3 -10 10 -10 16 0 14 7 11 14 -7z m39 -1 c-3 -7 -9 -13 -15 -13 -5 0
-7 4 -4 9 4 5 0 11 -6 14 -7 3 -3 4 8 4 14 -1 20 -6 17 -14z m-2366 -18 c0 -8
-4 -12 -9 -9 -5 3 -6 10 -3 15 9 13 12 11 12 -6z m141 -26 c-3 -8 -7 -3 -11
10 -4 17 -3 21 5 13 5 -5 8 -16 6 -23z m882 27 c0 -3 -4 -8 -10 -11 -5 -3 -10
-1 -10 4 0 6 5 11 10 11 6 0 10 -2 10 -4z m1537 -9 c0 -8 -6 -14 -14 -14 -9 0
-10 4 -2 14 6 7 12 13 14 13 1 0 2 -6 2 -13z m-1662 -6 c3 -5 2 -12 -3 -15 -5
-3 -9 1 -9 9 0 17 3 19 12 6z m57 -3 c-7 -7 -18 -13 -25 -13 -7 -1 -11 -6 -9
-13 1 -7 -2 -12 -8 -12 -15 0 -12 16 5 30 8 7 15 9 15 4 0 -4 5 -3 12 4 7 7
14 12 17 12 3 0 -1 -6 -7 -12z m488 -9 c0 -5 -4 -9 -8 -9 -5 0 -9 7 -9 15 0 8
4 12 9 9 4 -3 8 -9 8 -15z m373 6 c-3 -9 -8 -14 -10 -11 -3 3 -2 9 2 15 9 16
15 13 8 -4z m73 1 c18 5 18 5 0 -6 -15 -10 -21 -9 -35 6 -14 16 -14 17 0 6 9
-7 25 -10 35 -6z m451 -1 c0 -8 -4 -12 -9 -9 -4 3 -8 9 -8 15 0 5 4 9 8 9 5 0
9 -7 9 -15z m-1884 -2 c-7 -2 -13 -12 -13 -20 0 -9 -3 -14 -6 -10 -10 10 4 37
18 36 10 0 10 -2 1 -6z m251 -5 c-3 -4 -9 -8 -15 -8 -5 0 -9 4 -9 8 0 5 7 9
15 9 8 0 12 -4 9 -9z m376 2 c0 -5 -2 -10 -4 -10 -3 0 -8 5 -11 10 -3 6 -1 10
4 10 6 0 11 -4 11 -10z m176 -2 c3 -4 -1 -5 -10 -4 -8 1 -18 5 -22 8 -3 4 1 5
10 4 8 -1 18 -5 22 -8z m284 2 c0 -5 -5 -10 -11 -10 -5 0 -7 5 -4 10 3 6 8 10
11 10 2 0 4 -4 4 -10z"/>
<path d="M2746 1322 c-3 -5 1 -9 9 -9 8 0 12 4 9 9 -3 4 -7 8 -9 8 -2 0 -6 -4
-9 -8z"/>
<path d="M2875 1320 c3 -5 8 -10 11 -10 2 0 4 5 4 10 0 6 -5 10 -11 10 -5 0
-7 -4 -4 -10z"/>
<path d="M4533 1315 c0 -8 4 -12 9 -9 5 3 6 10 3 15 -9 13 -12 11 -12 -6z"/>
<path d="M2035 1299 c-4 -5 -13 -8 -21 -5 -12 5 -12 2 -3 -17 12 -21 11 -21
-8 -4 -24 21 -37 22 -30 3 4 -10 1 -13 -8 -9 -8 3 -13 9 -10 13 6 10 -15 8
-32 -3 -12 -8 -17 -2 -14 16 1 5 -3 5 -9 2 -6 -4 -9 -10 -6 -13 3 -3 0 -12 -6
-20 -15 -17 -20 -44 -7 -36 5 3 7 8 5 12 -5 9 20 33 27 25 3 -3 4 -10 3 -16
-2 -7 -1 -9 1 -4 3 4 9 5 14 1 5 -3 9 -2 8 3 -4 25 4 25 22 -2 12 -16 19 -22
15 -12 -3 9 -3 17 1 17 3 0 12 -8 20 -17 13 -16 13 -16 4 4 -15 31 -14 35 8
21 11 -7 17 -16 14 -22 -3 -5 -1 -6 6 -2 6 4 8 13 4 19 -4 7 0 6 10 -2 9 -7
14 -18 10 -24 -3 -6 -1 -7 6 -3 6 4 9 12 6 17 -4 5 0 9 8 9 8 0 17 -8 19 -18
3 -10 12 -19 21 -19 9 0 14 4 11 9 -3 5 -10 6 -15 3 -5 -4 -9 1 -9 9 0 17 20
18 32 1 4 -5 10 -6 15 -2 11 11 -17 26 -40 21 -11 -2 -17 0 -13 3 11 12 45 13
51 3 4 -6 11 -8 16 -5 5 3 6 -1 3 -9 -10 -26 12 -18 24 9 10 21 9 26 -8 35
-13 7 -21 7 -26 -2 -4 -6 -3 -8 4 -4 6 3 13 2 16 -3 5 -8 -15 -8 -34 -1 -3 1
-13 1 -24 0 -10 -1 -15 3 -12 9 4 5 15 8 26 6 11 -2 20 0 20 6 0 15 -39 4 -60
-18 -19 -21 -60 -22 -60 -1 0 5 4 7 9 3 5 -3 12 -1 15 4 4 5 2 12 -3 15 -5 4
-13 1 -16 -5z"/>
<path d="M2067 1289 c-4 -16 -3 -18 9 -8 16 13 19 29 5 29 -5 0 -11 -9 -14
-21z"/>
<path d="M1825 1276 c19 -29 28 -32 43 -13 7 8 7 18 2 27 -6 9 -10 10 -10 3 0
-12 -18 -12 -39 1 -8 6 -7 -1 4 -18z m39 -8 c-3 -4 -9 -8 -15 -8 -5 0 -9 4 -9
8 0 5 7 9 15 9 8 0 12 -4 9 -9z"/>
<path d="M1620 1280 c-9 -6 -10 -10 -3 -10 6 0 15 5 18 10 8 12 4 12 -15 0z"/>
<path d="M1717 1272 c-15 -16 -15 -19 -2 -19 8 0 13 3 10 5 -3 3 0 11 6 19 17
20 5 16 -14 -5z"/>
<path d="M1791 1274 c0 -11 3 -14 6 -6 3 7 2 16 -1 19 -3 4 -6 -2 -5 -13z"/>
<path d="M4995 1280 c3 -5 8 -10 11 -10 2 0 4 5 4 10 0 6 -5 10 -11 10 -5 0
-7 -4 -4 -10z"/>
<path d="M5120 1286 c0 -2 8 -10 18 -17 15 -13 16 -12 3 4 -13 16 -21 21 -21
13z"/>
<path d="M1746 1263 c-6 -14 -5 -15 5 -6 7 7 10 15 7 18 -3 3 -9 -2 -12 -12z"/>
<path d="M5030 1270 c-8 -5 -10 -10 -5 -10 6 0 17 5 25 10 8 5 11 10 5 10 -5
0 -17 -5 -25 -10z"/>
<path d="M4740 1255 c-7 -9 -10 -18 -6 -22 3 -3 6 -1 6 5 0 7 4 12 10 12 5 0
7 -8 4 -17 -5 -15 -4 -16 5 -3 23 33 6 55 -19 25z"/>
<path d="M5074 1255 c3 -23 12 -26 13 -5 1 11 -2 20 -7 20 -4 0 -7 -7 -6 -15z"/>
<path d="M4660 1260 c-1 -3 -4 -16 -6 -30 -3 -18 -2 -22 7 -13 6 6 9 19 6 29
-3 11 -6 17 -7 14z"/>
<path d="M4685 1250 c-4 -6 -4 -14 -1 -17 3 -4 6 0 6 8 0 12 2 12 10 -1 5 -8
12 -12 15 -9 3 4 -1 12 -9 18 -10 9 -16 9 -21 1z"/>
<path d="M4991 1251 c-8 -5 -9 -11 -3 -15 5 -3 12 1 16 9 6 17 6 18 -13 6z"/>
<path d="M1810 1239 c0 -5 5 -7 10 -4 6 3 10 8 10 11 0 2 -4 4 -10 4 -5 0 -10
-5 -10 -11z"/>
<path d="M2190 1240 c0 -5 5 -10 10 -10 6 0 10 5 10 10 0 6 -4 10 -10 10 -5 0
-10 -4 -10 -10z"/>
<path d="M2600 1220 c-13 -8 -12 -10 3 -10 9 0 17 5 17 10 0 12 -1 12 -20 0z"/>
<path d="M3248 1201 c4 -9 7 -11 9 -4 3 7 11 9 20 6 10 -4 14 -2 9 5 -10 17
-45 11 -38 -7z"/>
<path d="M3490 1205 c6 -8 18 -11 26 -8 18 7 13 12 -16 18 -18 3 -20 2 -10
-10z"/>
<path d="M3693 1205 c0 -8 4 -12 9 -9 5 3 6 10 3 15 -9 13 -12 11 -12 -6z"/>
<path d="M3786 1207 c3 -10 9 -15 12 -12 3 3 0 11 -7 18 -10 9 -11 8 -5 -6z"/>
<path d="M2490 1199 c0 -5 5 -7 10 -4 6 3 10 8 10 11 0 2 -4 4 -10 4 -5 0 -10
-5 -10 -11z"/>
</g>
</svg>
